<mxfile host="Electron" modified="2023-11-28T12:00:53.444Z" agent="Mozilla/5.0 (Windows NT 10.0; Win64; x64) AppleWebKit/537.36 (KHTML, like Gecko) draw.io/22.1.2 Chrome/114.0.5735.289 Electron/25.9.4 Safari/537.36" etag="yJOMvpZYVdPFsnoVBm4c" version="22.1.2" type="device">
  <diagram name="Seite-1" id="_fERbNgF3fjjZuAF2T7R">
    <mxGraphModel dx="4758" dy="3840" grid="1" gridSize="10" guides="1" tooltips="1" connect="1" arrows="1" fold="1" page="1" pageScale="1" pageWidth="1654" pageHeight="1169" math="0" shadow="0">
      <root>
        <mxCell id="0" />
        <mxCell id="1" parent="0" />
        <mxCell id="QMm4au8p8HmQlGDRWAsn-196" value="" style="shape=hexagon;perimeter=hexagonPerimeter2;whiteSpace=wrap;html=1;fixedSize=1;size=123;fillColor=#d5e8d4;strokeColor=#82b366;" vertex="1" parent="1">
          <mxGeometry x="332.5" y="-129.75" width="1545" height="1019.5" as="geometry" />
        </mxCell>
        <mxCell id="QMm4au8p8HmQlGDRWAsn-194" value="" style="shape=hexagon;perimeter=hexagonPerimeter2;whiteSpace=wrap;html=1;fixedSize=1;size=123;fillColor=#d5e8d4;strokeColor=#82b366;" vertex="1" parent="1">
          <mxGeometry x="332.5" y="-1309.25" width="1545" height="1019.5" as="geometry" />
        </mxCell>
        <mxCell id="QMm4au8p8HmQlGDRWAsn-166" value="" style="shape=hexagon;perimeter=hexagonPerimeter2;whiteSpace=wrap;html=1;fixedSize=1;size=123;fillColor=#FFF2CC;strokeColor=#d6b656;" vertex="1" parent="1">
          <mxGeometry x="610" y="-50" width="990" height="860" as="geometry" />
        </mxCell>
        <mxCell id="QMm4au8p8HmQlGDRWAsn-165" value="" style="shape=hexagon;perimeter=hexagonPerimeter2;whiteSpace=wrap;html=1;fixedSize=1;size=120;fillColor=#FFCEA3;strokeColor=#d79b00;" vertex="1" parent="1">
          <mxGeometry x="810" y="150" width="590" height="460" as="geometry" />
        </mxCell>
        <mxCell id="QMm4au8p8HmQlGDRWAsn-164" value="" style="group" vertex="1" connectable="0" parent="1">
          <mxGeometry x="900" y="220" width="410" height="320" as="geometry" />
        </mxCell>
        <mxCell id="QMm4au8p8HmQlGDRWAsn-163" value="" style="shape=hexagon;perimeter=hexagonPerimeter2;whiteSpace=wrap;html=1;fixedSize=1;size=80;fillColor=#FF7575;strokeColor=#b85450;" vertex="1" parent="QMm4au8p8HmQlGDRWAsn-164">
          <mxGeometry width="410" height="320" as="geometry" />
        </mxCell>
        <mxCell id="QMm4au8p8HmQlGDRWAsn-139" value="JobOffer&lt;br&gt;View Model" style="rounded=0;whiteSpace=wrap;html=1;strokeWidth=2;" vertex="1" parent="QMm4au8p8HmQlGDRWAsn-164">
          <mxGeometry x="240" y="135" width="100" height="50" as="geometry" />
        </mxCell>
        <mxCell id="QMm4au8p8HmQlGDRWAsn-140" value="JobApplication&lt;br&gt;View Model" style="rounded=0;whiteSpace=wrap;html=1;strokeWidth=2;" vertex="1" parent="QMm4au8p8HmQlGDRWAsn-164">
          <mxGeometry x="80" y="135" width="100" height="50" as="geometry" />
        </mxCell>
        <mxCell id="QMm4au8p8HmQlGDRWAsn-202" value="Domain Model" style="text;html=1;strokeColor=none;fillColor=none;align=center;verticalAlign=middle;whiteSpace=wrap;rounded=0;fontColor=#FFFFFF;fontSize=23;" vertex="1" parent="QMm4au8p8HmQlGDRWAsn-164">
          <mxGeometry x="121.25" y="10" width="167.5" height="50" as="geometry" />
        </mxCell>
        <mxCell id="QMm4au8p8HmQlGDRWAsn-203" value="Domain" style="text;html=1;strokeColor=none;fillColor=none;align=center;verticalAlign=middle;whiteSpace=wrap;rounded=0;fontColor=#000000;fontSize=23;" vertex="1" parent="QMm4au8p8HmQlGDRWAsn-164">
          <mxGeometry x="126.25" y="-50" width="157.5" height="30" as="geometry" />
        </mxCell>
        <mxCell id="QMm4au8p8HmQlGDRWAsn-14" value="" style="shape=hexagon;perimeter=hexagonPerimeter2;whiteSpace=wrap;html=1;fixedSize=1;size=123;fillColor=#fff2cc;strokeColor=#d6b656;" vertex="1" parent="1">
          <mxGeometry x="610" y="-1229.5" width="990" height="860" as="geometry" />
        </mxCell>
        <mxCell id="QMm4au8p8HmQlGDRWAsn-15" value="" style="shape=hexagon;perimeter=hexagonPerimeter2;whiteSpace=wrap;html=1;fixedSize=1;size=100;fillColor=#FFCEA3;strokeColor=#d79b00;" vertex="1" parent="1">
          <mxGeometry x="775" y="-1075.5" width="670" height="552" as="geometry" />
        </mxCell>
        <mxCell id="QMm4au8p8HmQlGDRWAsn-16" value="" style="shape=hexagon;perimeter=hexagonPerimeter2;whiteSpace=wrap;html=1;fixedSize=1;size=90;fillColor=#FF7575;strokeColor=#b85450;" vertex="1" parent="1">
          <mxGeometry x="900" y="-959.5" width="410" height="320" as="geometry" />
        </mxCell>
        <mxCell id="QMm4au8p8HmQlGDRWAsn-21" style="edgeStyle=orthogonalEdgeStyle;rounded=0;orthogonalLoop=1;jettySize=auto;html=1;" edge="1" parent="1" source="QMm4au8p8HmQlGDRWAsn-17" target="QMm4au8p8HmQlGDRWAsn-20">
          <mxGeometry relative="1" as="geometry" />
        </mxCell>
        <mxCell id="QMm4au8p8HmQlGDRWAsn-17" value="JobOffer&lt;br&gt;Command REST&lt;br&gt;Api Controller" style="rounded=0;whiteSpace=wrap;html=1;strokeWidth=2;" vertex="1" parent="1">
          <mxGeometry x="470" y="-1090" width="100" height="50" as="geometry" />
        </mxCell>
        <mxCell id="QMm4au8p8HmQlGDRWAsn-22" style="edgeStyle=orthogonalEdgeStyle;rounded=0;orthogonalLoop=1;jettySize=auto;html=1;endArrow=block;endFill=0;entryX=1;entryY=0.5;entryDx=0;entryDy=0;" edge="1" parent="1" source="QMm4au8p8HmQlGDRWAsn-18" target="QMm4au8p8HmQlGDRWAsn-20">
          <mxGeometry relative="1" as="geometry">
            <Array as="points">
              <mxPoint x="830" y="-1135" />
              <mxPoint x="830" y="-1065" />
            </Array>
          </mxGeometry>
        </mxCell>
        <mxCell id="QMm4au8p8HmQlGDRWAsn-24" style="edgeStyle=orthogonalEdgeStyle;rounded=0;orthogonalLoop=1;jettySize=auto;html=1;" edge="1" parent="1" source="QMm4au8p8HmQlGDRWAsn-18" target="QMm4au8p8HmQlGDRWAsn-23">
          <mxGeometry relative="1" as="geometry" />
        </mxCell>
        <mxCell id="QMm4au8p8HmQlGDRWAsn-28" style="edgeStyle=orthogonalEdgeStyle;rounded=0;orthogonalLoop=1;jettySize=auto;html=1;entryX=0;entryY=0.25;entryDx=0;entryDy=0;" edge="1" parent="1" source="QMm4au8p8HmQlGDRWAsn-18" target="QMm4au8p8HmQlGDRWAsn-27">
          <mxGeometry relative="1" as="geometry">
            <Array as="points">
              <mxPoint x="1460" y="-1135" />
              <mxPoint x="1460" y="-1060" />
            </Array>
          </mxGeometry>
        </mxCell>
        <mxCell id="QMm4au8p8HmQlGDRWAsn-18" value="JobOffer&lt;br&gt;Command&lt;br&gt;Handler" style="rounded=0;whiteSpace=wrap;html=1;strokeWidth=2;" vertex="1" parent="1">
          <mxGeometry x="920" y="-1160" width="100" height="50" as="geometry" />
        </mxCell>
        <mxCell id="QMm4au8p8HmQlGDRWAsn-20" value="JobOffer&lt;br&gt;Command Port" style="rounded=0;whiteSpace=wrap;html=1;strokeWidth=2;fillColor=#dae8fc;strokeColor=#6c8ebf;" vertex="1" parent="1">
          <mxGeometry x="670" y="-1090" width="100" height="50" as="geometry" />
        </mxCell>
        <mxCell id="QMm4au8p8HmQlGDRWAsn-127" style="edgeStyle=orthogonalEdgeStyle;rounded=0;orthogonalLoop=1;jettySize=auto;html=1;entryX=0;entryY=0.25;entryDx=0;entryDy=0;exitX=1;exitY=0.75;exitDx=0;exitDy=0;jumpStyle=none;" edge="1" parent="1" source="QMm4au8p8HmQlGDRWAsn-23" target="QMm4au8p8HmQlGDRWAsn-89">
          <mxGeometry relative="1" as="geometry">
            <Array as="points">
              <mxPoint x="1350" y="-1023" />
              <mxPoint x="1350" y="-887" />
            </Array>
          </mxGeometry>
        </mxCell>
        <mxCell id="QMm4au8p8HmQlGDRWAsn-154" style="edgeStyle=orthogonalEdgeStyle;rounded=0;orthogonalLoop=1;jettySize=auto;html=1;exitX=1;exitY=0.25;exitDx=0;exitDy=0;entryX=0;entryY=0.5;entryDx=0;entryDy=0;" edge="1" parent="1" source="QMm4au8p8HmQlGDRWAsn-23" target="QMm4au8p8HmQlGDRWAsn-27">
          <mxGeometry relative="1" as="geometry">
            <Array as="points">
              <mxPoint x="1490" y="-1047" />
            </Array>
          </mxGeometry>
        </mxCell>
        <mxCell id="QMm4au8p8HmQlGDRWAsn-23" value="JobOffer&lt;br&gt;Domain Service" style="rounded=0;whiteSpace=wrap;html=1;strokeWidth=2;" vertex="1" parent="1">
          <mxGeometry x="920" y="-1060" width="100" height="50" as="geometry" />
        </mxCell>
        <mxCell id="QMm4au8p8HmQlGDRWAsn-25" value="JobOffer&lt;br&gt;Model" style="rounded=0;whiteSpace=wrap;html=1;strokeWidth=2;" vertex="1" parent="1">
          <mxGeometry x="1115" y="-887.5" width="100" height="50" as="geometry" />
        </mxCell>
        <mxCell id="QMm4au8p8HmQlGDRWAsn-26" value="JobOffer&lt;br&gt;Events" style="rounded=0;whiteSpace=wrap;html=1;strokeWidth=2;" vertex="1" parent="1">
          <mxGeometry x="1005" y="-887.5" width="100" height="50" as="geometry" />
        </mxCell>
        <mxCell id="QMm4au8p8HmQlGDRWAsn-32" style="edgeStyle=orthogonalEdgeStyle;rounded=0;orthogonalLoop=1;jettySize=auto;html=1;exitX=1;exitY=0.5;exitDx=0;exitDy=0;" edge="1" parent="1" source="QMm4au8p8HmQlGDRWAsn-33" target="QMm4au8p8HmQlGDRWAsn-31">
          <mxGeometry relative="1" as="geometry" />
        </mxCell>
        <mxCell id="QMm4au8p8HmQlGDRWAsn-27" value="JobOffer&lt;br&gt;Event Store" style="rounded=0;whiteSpace=wrap;html=1;strokeWidth=2;fillColor=#dae8fc;strokeColor=#6c8ebf;" vertex="1" parent="1">
          <mxGeometry x="1500" y="-1072.5" width="100" height="50" as="geometry" />
        </mxCell>
        <mxCell id="QMm4au8p8HmQlGDRWAsn-110" style="edgeStyle=orthogonalEdgeStyle;rounded=0;orthogonalLoop=1;jettySize=auto;html=1;entryX=0;entryY=0.5;entryDx=0;entryDy=0;exitX=1;exitY=0.5;exitDx=0;exitDy=0;" edge="1" parent="1" source="QMm4au8p8HmQlGDRWAsn-31" target="QMm4au8p8HmQlGDRWAsn-47">
          <mxGeometry relative="1" as="geometry">
            <mxPoint x="2580" y="-70" as="targetPoint" />
            <mxPoint x="2220" y="-770" as="sourcePoint" />
            <Array as="points">
              <mxPoint x="2310" y="-803" />
              <mxPoint x="2520" y="-803" />
              <mxPoint x="2520" y="-170" />
              <mxPoint x="230" y="-170" />
              <mxPoint x="230" y="205" />
            </Array>
          </mxGeometry>
        </mxCell>
        <mxCell id="QMm4au8p8HmQlGDRWAsn-111" style="edgeStyle=orthogonalEdgeStyle;rounded=0;orthogonalLoop=1;jettySize=auto;html=1;entryX=0;entryY=0.5;entryDx=0;entryDy=0;exitX=1;exitY=0.5;exitDx=0;exitDy=0;" edge="1" parent="1" source="QMm4au8p8HmQlGDRWAsn-31" target="QMm4au8p8HmQlGDRWAsn-68">
          <mxGeometry relative="1" as="geometry">
            <mxPoint x="90" y="980" as="targetPoint" />
            <Array as="points">
              <mxPoint x="2310" y="-803" />
              <mxPoint x="2520" y="-803" />
              <mxPoint x="2520" y="-170" />
              <mxPoint x="230" y="-170" />
              <mxPoint x="230" y="692" />
            </Array>
          </mxGeometry>
        </mxCell>
        <mxCell id="QMm4au8p8HmQlGDRWAsn-160" style="edgeStyle=orthogonalEdgeStyle;rounded=0;orthogonalLoop=1;jettySize=auto;html=1;entryX=0;entryY=0.5;entryDx=0;entryDy=0;" edge="1" parent="1" source="QMm4au8p8HmQlGDRWAsn-31" target="QMm4au8p8HmQlGDRWAsn-73">
          <mxGeometry relative="1" as="geometry">
            <Array as="points">
              <mxPoint x="2520" y="-803" />
              <mxPoint x="2520" y="-170" />
              <mxPoint x="230" y="-170" />
              <mxPoint x="230" y="-427" />
            </Array>
          </mxGeometry>
        </mxCell>
        <mxCell id="QMm4au8p8HmQlGDRWAsn-31" value="Event&lt;br style=&quot;font-size: 20px;&quot;&gt;Store" style="shape=datastore;whiteSpace=wrap;html=1;fontSize=20;fontStyle=0;fillColor=#e1d5e7;strokeColor=#9673a6;" vertex="1" parent="1">
          <mxGeometry x="2190" y="-862.5" width="120" height="100" as="geometry" />
        </mxCell>
        <mxCell id="QMm4au8p8HmQlGDRWAsn-35" style="edgeStyle=orthogonalEdgeStyle;rounded=0;orthogonalLoop=1;jettySize=auto;html=1;exitX=0;exitY=0.5;exitDx=0;exitDy=0;entryX=1;entryY=0.5;entryDx=0;entryDy=0;endArrow=block;endFill=0;" edge="1" parent="1" source="QMm4au8p8HmQlGDRWAsn-33" target="QMm4au8p8HmQlGDRWAsn-27">
          <mxGeometry relative="1" as="geometry" />
        </mxCell>
        <mxCell id="QMm4au8p8HmQlGDRWAsn-33" value="JobOffer&lt;br&gt;Event Adapter" style="rounded=0;whiteSpace=wrap;html=1;strokeWidth=2;" vertex="1" parent="1">
          <mxGeometry x="1710" y="-1072.5" width="100" height="50" as="geometry" />
        </mxCell>
        <mxCell id="QMm4au8p8HmQlGDRWAsn-39" style="edgeStyle=orthogonalEdgeStyle;rounded=0;orthogonalLoop=1;jettySize=auto;html=1;entryX=0;entryY=0.5;entryDx=0;entryDy=0;exitX=1;exitY=0.25;exitDx=0;exitDy=0;" edge="1" parent="1" source="QMm4au8p8HmQlGDRWAsn-36" target="QMm4au8p8HmQlGDRWAsn-38">
          <mxGeometry relative="1" as="geometry">
            <Array as="points">
              <mxPoint x="590" y="-840" />
              <mxPoint x="590" y="-905" />
            </Array>
          </mxGeometry>
        </mxCell>
        <mxCell id="QMm4au8p8HmQlGDRWAsn-158" style="edgeStyle=orthogonalEdgeStyle;rounded=0;orthogonalLoop=1;jettySize=auto;html=1;exitX=1;exitY=0.75;exitDx=0;exitDy=0;entryX=0;entryY=0.25;entryDx=0;entryDy=0;" edge="1" parent="1" source="QMm4au8p8HmQlGDRWAsn-36" target="QMm4au8p8HmQlGDRWAsn-40">
          <mxGeometry relative="1" as="geometry">
            <Array as="points">
              <mxPoint x="590" y="-815" />
              <mxPoint x="590" y="-707" />
            </Array>
          </mxGeometry>
        </mxCell>
        <mxCell id="QMm4au8p8HmQlGDRWAsn-36" value="Company&lt;br&gt;External Event&lt;br&gt;Listener" style="rounded=0;whiteSpace=wrap;html=1;strokeWidth=2;" vertex="1" parent="1">
          <mxGeometry x="470" y="-852.5" width="100" height="50" as="geometry" />
        </mxCell>
        <mxCell id="QMm4au8p8HmQlGDRWAsn-195" style="edgeStyle=orthogonalEdgeStyle;rounded=0;orthogonalLoop=1;jettySize=auto;html=1;entryX=0;entryY=0.75;entryDx=0;entryDy=0;" edge="1" parent="1" source="QMm4au8p8HmQlGDRWAsn-37" target="QMm4au8p8HmQlGDRWAsn-40">
          <mxGeometry relative="1" as="geometry">
            <Array as="points">
              <mxPoint x="580" y="-735" />
              <mxPoint x="580" y="-682" />
            </Array>
          </mxGeometry>
        </mxCell>
        <mxCell id="QMm4au8p8HmQlGDRWAsn-37" value="User&lt;br&gt;External Event&lt;br&gt;Listener" style="rounded=0;whiteSpace=wrap;html=1;strokeWidth=2;" vertex="1" parent="1">
          <mxGeometry x="470" y="-760" width="100" height="50" as="geometry" />
        </mxCell>
        <mxCell id="QMm4au8p8HmQlGDRWAsn-38" value="JobOffer&lt;br&gt;External Event&lt;br&gt;Handler Port" style="rounded=0;whiteSpace=wrap;html=1;strokeWidth=2;fillColor=#dae8fc;strokeColor=#6c8ebf;" vertex="1" parent="1">
          <mxGeometry x="610" y="-930" width="100" height="50" as="geometry" />
        </mxCell>
        <mxCell id="QMm4au8p8HmQlGDRWAsn-40" value="JobApplication&lt;br&gt;External Event&lt;br&gt;Handler Port" style="rounded=0;whiteSpace=wrap;html=1;strokeWidth=2;fillColor=#dae8fc;strokeColor=#6c8ebf;" vertex="1" parent="1">
          <mxGeometry x="610" y="-720" width="100" height="50" as="geometry" />
        </mxCell>
        <mxCell id="QMm4au8p8HmQlGDRWAsn-46" style="edgeStyle=orthogonalEdgeStyle;rounded=0;orthogonalLoop=1;jettySize=auto;html=1;entryX=0;entryY=0.75;entryDx=0;entryDy=0;exitX=0.5;exitY=0;exitDx=0;exitDy=0;jumpStyle=arc;" edge="1" parent="1" source="QMm4au8p8HmQlGDRWAsn-43" target="QMm4au8p8HmQlGDRWAsn-27">
          <mxGeometry relative="1" as="geometry">
            <Array as="points">
              <mxPoint x="910" y="-970" />
              <mxPoint x="1460" y="-970" />
              <mxPoint x="1460" y="-1035" />
            </Array>
          </mxGeometry>
        </mxCell>
        <mxCell id="QMm4au8p8HmQlGDRWAsn-43" value="JobOffer&lt;br&gt;External Event&lt;br&gt;Handler" style="rounded=0;whiteSpace=wrap;html=1;strokeWidth=2;" vertex="1" parent="1">
          <mxGeometry x="830" y="-930" width="100" height="50" as="geometry" />
        </mxCell>
        <mxCell id="QMm4au8p8HmQlGDRWAsn-44" style="edgeStyle=orthogonalEdgeStyle;rounded=0;orthogonalLoop=1;jettySize=auto;html=1;endArrow=block;endFill=0;exitX=0;exitY=0.5;exitDx=0;exitDy=0;entryX=1;entryY=0.5;entryDx=0;entryDy=0;" edge="1" parent="1" source="QMm4au8p8HmQlGDRWAsn-43" target="QMm4au8p8HmQlGDRWAsn-38">
          <mxGeometry relative="1" as="geometry">
            <mxPoint x="610" y="-1055" as="sourcePoint" />
            <mxPoint x="530" y="-1055" as="targetPoint" />
          </mxGeometry>
        </mxCell>
        <mxCell id="QMm4au8p8HmQlGDRWAsn-47" value="JobOffer&lt;br&gt;View Projector" style="rounded=0;whiteSpace=wrap;html=1;strokeWidth=2;" vertex="1" parent="1">
          <mxGeometry x="470" y="180" width="100" height="50" as="geometry" />
        </mxCell>
        <mxCell id="QMm4au8p8HmQlGDRWAsn-48" value="JobOffer&lt;br&gt;Query REST&lt;br&gt;Api Controller" style="rounded=0;whiteSpace=wrap;html=1;strokeWidth=2;" vertex="1" parent="1">
          <mxGeometry x="470" y="60" width="100" height="50" as="geometry" />
        </mxCell>
        <mxCell id="QMm4au8p8HmQlGDRWAsn-53" style="edgeStyle=orthogonalEdgeStyle;rounded=0;orthogonalLoop=1;jettySize=auto;html=1;endArrow=block;endFill=0;exitX=0;exitY=0.5;exitDx=0;exitDy=0;entryX=1;entryY=0.5;entryDx=0;entryDy=0;" edge="1" parent="1" source="QMm4au8p8HmQlGDRWAsn-52" target="QMm4au8p8HmQlGDRWAsn-50">
          <mxGeometry relative="1" as="geometry">
            <mxPoint x="590" y="140" as="sourcePoint" />
            <mxPoint x="520" y="140" as="targetPoint" />
            <Array as="points">
              <mxPoint x="820" y="115" />
              <mxPoint x="820" y="205" />
            </Array>
          </mxGeometry>
        </mxCell>
        <mxCell id="QMm4au8p8HmQlGDRWAsn-58" style="edgeStyle=orthogonalEdgeStyle;rounded=0;orthogonalLoop=1;jettySize=auto;html=1;endArrow=block;endFill=0;" edge="1" parent="1" source="QMm4au8p8HmQlGDRWAsn-56" target="QMm4au8p8HmQlGDRWAsn-54">
          <mxGeometry relative="1" as="geometry" />
        </mxCell>
        <mxCell id="QMm4au8p8HmQlGDRWAsn-173" style="edgeStyle=orthogonalEdgeStyle;rounded=0;orthogonalLoop=1;jettySize=auto;html=1;entryX=0;entryY=0.3;entryDx=0;entryDy=0;" edge="1" parent="1" source="QMm4au8p8HmQlGDRWAsn-56" target="QMm4au8p8HmQlGDRWAsn-167">
          <mxGeometry relative="1" as="geometry" />
        </mxCell>
        <mxCell id="QMm4au8p8HmQlGDRWAsn-56" value="JobOffer&lt;br&gt;Query &lt;br&gt;Adapter" style="rounded=0;whiteSpace=wrap;html=1;strokeWidth=2;" vertex="1" parent="1">
          <mxGeometry x="1690" y="80" width="100" height="50" as="geometry" />
        </mxCell>
        <mxCell id="QMm4au8p8HmQlGDRWAsn-59" style="edgeStyle=orthogonalEdgeStyle;rounded=0;orthogonalLoop=1;jettySize=auto;html=1;endArrow=block;endFill=0;" edge="1" parent="1" source="QMm4au8p8HmQlGDRWAsn-57" target="QMm4au8p8HmQlGDRWAsn-55">
          <mxGeometry relative="1" as="geometry" />
        </mxCell>
        <mxCell id="QMm4au8p8HmQlGDRWAsn-172" style="edgeStyle=orthogonalEdgeStyle;rounded=0;orthogonalLoop=1;jettySize=auto;html=1;entryX=0;entryY=0.7;entryDx=0;entryDy=0;" edge="1" parent="1" source="QMm4au8p8HmQlGDRWAsn-57" target="QMm4au8p8HmQlGDRWAsn-167">
          <mxGeometry relative="1" as="geometry" />
        </mxCell>
        <mxCell id="QMm4au8p8HmQlGDRWAsn-57" value="JobOffer&lt;br&gt;Update View&lt;br&gt;Adapter" style="rounded=0;whiteSpace=wrap;html=1;strokeWidth=2;" vertex="1" parent="1">
          <mxGeometry x="1690" y="170" width="100" height="50" as="geometry" />
        </mxCell>
        <mxCell id="QMm4au8p8HmQlGDRWAsn-67" style="edgeStyle=orthogonalEdgeStyle;rounded=0;orthogonalLoop=1;jettySize=auto;html=1;entryX=0;entryY=0.5;entryDx=0;entryDy=0;" edge="1" parent="1" source="QMm4au8p8HmQlGDRWAsn-68" target="QMm4au8p8HmQlGDRWAsn-71">
          <mxGeometry relative="1" as="geometry" />
        </mxCell>
        <mxCell id="QMm4au8p8HmQlGDRWAsn-68" value="JobApplication&lt;br&gt;View Projector" style="rounded=0;whiteSpace=wrap;html=1;strokeWidth=2;" vertex="1" parent="1">
          <mxGeometry x="470" y="667" width="100" height="50" as="geometry" />
        </mxCell>
        <mxCell id="QMm4au8p8HmQlGDRWAsn-178" style="edgeStyle=orthogonalEdgeStyle;rounded=0;orthogonalLoop=1;jettySize=auto;html=1;" edge="1" parent="1" source="QMm4au8p8HmQlGDRWAsn-70">
          <mxGeometry relative="1" as="geometry">
            <mxPoint x="630" y="555" as="targetPoint" />
          </mxGeometry>
        </mxCell>
        <mxCell id="QMm4au8p8HmQlGDRWAsn-70" value="JobApplication&lt;br&gt;Query REST&lt;br&gt;Api Controller" style="rounded=0;whiteSpace=wrap;html=1;strokeWidth=2;" vertex="1" parent="1">
          <mxGeometry x="470" y="530" width="100" height="50" as="geometry" />
        </mxCell>
        <mxCell id="QMm4au8p8HmQlGDRWAsn-161" style="edgeStyle=orthogonalEdgeStyle;rounded=0;orthogonalLoop=1;jettySize=auto;html=1;entryX=0;entryY=0.5;entryDx=0;entryDy=0;" edge="1" parent="1" source="QMm4au8p8HmQlGDRWAsn-73" target="QMm4au8p8HmQlGDRWAsn-76">
          <mxGeometry relative="1" as="geometry" />
        </mxCell>
        <mxCell id="QMm4au8p8HmQlGDRWAsn-73" value="JobApplication&lt;br&gt;Internal Event&lt;br&gt;Listener" style="rounded=0;whiteSpace=wrap;html=1;strokeWidth=2;" vertex="1" parent="1">
          <mxGeometry x="470" y="-452.5" width="100" height="50" as="geometry" />
        </mxCell>
        <mxCell id="QMm4au8p8HmQlGDRWAsn-85" style="edgeStyle=orthogonalEdgeStyle;rounded=0;orthogonalLoop=1;jettySize=auto;html=1;entryX=0;entryY=0.5;entryDx=0;entryDy=0;exitX=1;exitY=0.5;exitDx=0;exitDy=0;" edge="1" parent="1" source="QMm4au8p8HmQlGDRWAsn-147" target="QMm4au8p8HmQlGDRWAsn-80">
          <mxGeometry relative="1" as="geometry">
            <mxPoint x="1030" y="-280" as="sourcePoint" />
          </mxGeometry>
        </mxCell>
        <mxCell id="QMm4au8p8HmQlGDRWAsn-76" value="JobApplication&lt;br&gt;Cross Aggregate&lt;br&gt;Event Handler&lt;br&gt;Port" style="rounded=0;whiteSpace=wrap;html=1;strokeWidth=2;fillColor=#dae8fc;strokeColor=#6c8ebf;" vertex="1" parent="1">
          <mxGeometry x="680" y="-465" width="100" height="75" as="geometry" />
        </mxCell>
        <mxCell id="QMm4au8p8HmQlGDRWAsn-80" value="JobApplication&lt;br&gt;Event Store" style="rounded=0;whiteSpace=wrap;html=1;strokeWidth=2;fillColor=#dae8fc;strokeColor=#6c8ebf;" vertex="1" parent="1">
          <mxGeometry x="1500" y="-584" width="100" height="50" as="geometry" />
        </mxCell>
        <mxCell id="QMm4au8p8HmQlGDRWAsn-82" style="edgeStyle=orthogonalEdgeStyle;rounded=0;orthogonalLoop=1;jettySize=auto;html=1;exitX=0;exitY=0.5;exitDx=0;exitDy=0;entryX=1;entryY=0.5;entryDx=0;entryDy=0;endArrow=block;endFill=0;" edge="1" parent="1" source="QMm4au8p8HmQlGDRWAsn-83" target="QMm4au8p8HmQlGDRWAsn-80">
          <mxGeometry relative="1" as="geometry" />
        </mxCell>
        <mxCell id="QMm4au8p8HmQlGDRWAsn-84" style="edgeStyle=orthogonalEdgeStyle;rounded=0;orthogonalLoop=1;jettySize=auto;html=1;entryX=0.5;entryY=1;entryDx=0;entryDy=0;" edge="1" parent="1" source="QMm4au8p8HmQlGDRWAsn-83" target="QMm4au8p8HmQlGDRWAsn-31">
          <mxGeometry relative="1" as="geometry" />
        </mxCell>
        <mxCell id="QMm4au8p8HmQlGDRWAsn-83" value="JobApplication&lt;br&gt;Event Adapter" style="rounded=0;whiteSpace=wrap;html=1;strokeWidth=2;" vertex="1" parent="1">
          <mxGeometry x="1710" y="-584" width="100" height="50" as="geometry" />
        </mxCell>
        <mxCell id="QMm4au8p8HmQlGDRWAsn-88" style="edgeStyle=orthogonalEdgeStyle;rounded=0;orthogonalLoop=1;jettySize=auto;html=1;entryX=0.25;entryY=0;entryDx=0;entryDy=0;exitX=0.75;exitY=1;exitDx=0;exitDy=0;dashed=1;fillColor=#dae8fc;strokeColor=#000000;" edge="1" parent="1" source="QMm4au8p8HmQlGDRWAsn-87" target="QMm4au8p8HmQlGDRWAsn-66">
          <mxGeometry relative="1" as="geometry">
            <mxPoint x="890" y="-380" as="sourcePoint" />
            <mxPoint x="465" y="950" as="targetPoint" />
            <Array as="points">
              <mxPoint x="1005" y="-250" />
              <mxPoint x="660" y="-250" />
              <mxPoint x="660" y="40" />
              <mxPoint x="590" y="40" />
              <mxPoint x="590" y="510" />
              <mxPoint x="645" y="510" />
            </Array>
          </mxGeometry>
        </mxCell>
        <mxCell id="QMm4au8p8HmQlGDRWAsn-87" value="JobApplication&lt;br&gt;Domain Service" style="rounded=0;whiteSpace=wrap;html=1;strokeWidth=2;" vertex="1" parent="1">
          <mxGeometry x="930" y="-584" width="100" height="50" as="geometry" />
        </mxCell>
        <mxCell id="QMm4au8p8HmQlGDRWAsn-89" value="Company&lt;br&gt;Port" style="rounded=0;whiteSpace=wrap;html=1;strokeWidth=2;fillColor=#dae8fc;strokeColor=#6c8ebf;" vertex="1" parent="1">
          <mxGeometry x="1540" y="-900" width="100" height="50" as="geometry" />
        </mxCell>
        <mxCell id="QMm4au8p8HmQlGDRWAsn-90" value="User&lt;br&gt;Port" style="rounded=0;whiteSpace=wrap;html=1;strokeWidth=2;fillColor=#dae8fc;strokeColor=#6c8ebf;" vertex="1" parent="1">
          <mxGeometry x="1540" y="-760" width="100" height="50" as="geometry" />
        </mxCell>
        <mxCell id="QMm4au8p8HmQlGDRWAsn-92" style="edgeStyle=orthogonalEdgeStyle;rounded=0;orthogonalLoop=1;jettySize=auto;html=1;endArrow=block;endFill=0;exitX=0.5;exitY=0;exitDx=0;exitDy=0;entryX=1;entryY=0.5;entryDx=0;entryDy=0;" edge="1" parent="1" source="QMm4au8p8HmQlGDRWAsn-91" target="QMm4au8p8HmQlGDRWAsn-89">
          <mxGeometry relative="1" as="geometry" />
        </mxCell>
        <mxCell id="QMm4au8p8HmQlGDRWAsn-93" style="edgeStyle=orthogonalEdgeStyle;rounded=0;orthogonalLoop=1;jettySize=auto;html=1;endArrow=block;endFill=0;exitX=0.5;exitY=1;exitDx=0;exitDy=0;entryX=1;entryY=0.5;entryDx=0;entryDy=0;" edge="1" parent="1" source="QMm4au8p8HmQlGDRWAsn-91" target="QMm4au8p8HmQlGDRWAsn-90">
          <mxGeometry relative="1" as="geometry" />
        </mxCell>
        <mxCell id="QMm4au8p8HmQlGDRWAsn-96" style="edgeStyle=orthogonalEdgeStyle;rounded=0;orthogonalLoop=1;jettySize=auto;html=1;entryX=-0.026;entryY=0.471;entryDx=0;entryDy=0;entryPerimeter=0;" edge="1" parent="1" source="QMm4au8p8HmQlGDRWAsn-91" target="QMm4au8p8HmQlGDRWAsn-97">
          <mxGeometry relative="1" as="geometry">
            <mxPoint x="2170" y="-290" as="targetPoint" />
          </mxGeometry>
        </mxCell>
        <mxCell id="QMm4au8p8HmQlGDRWAsn-91" value="UserService&lt;br&gt;Adapter" style="rounded=0;whiteSpace=wrap;html=1;strokeWidth=2;" vertex="1" parent="1">
          <mxGeometry x="1710" y="-837.5" width="100" height="50" as="geometry" />
        </mxCell>
        <mxCell id="QMm4au8p8HmQlGDRWAsn-97" value="User Serivce" style="shape=umlFrame;whiteSpace=wrap;html=1;pointerEvents=0;width=140;height=50;fillColor=#e1d5e7;strokeColor=#9673a6;fontSize=20;" vertex="1" parent="1">
          <mxGeometry x="1930" y="-845.5" width="170" height="70" as="geometry" />
        </mxCell>
        <mxCell id="QMm4au8p8HmQlGDRWAsn-101" style="edgeStyle=orthogonalEdgeStyle;rounded=0;orthogonalLoop=1;jettySize=auto;html=1;" edge="1" parent="1" source="QMm4au8p8HmQlGDRWAsn-102" target="QMm4au8p8HmQlGDRWAsn-105">
          <mxGeometry relative="1" as="geometry" />
        </mxCell>
        <mxCell id="QMm4au8p8HmQlGDRWAsn-102" value="JobApplication&lt;br&gt;Command REST&lt;br&gt;Api Controller" style="rounded=0;whiteSpace=wrap;html=1;strokeWidth=2;" vertex="1" parent="1">
          <mxGeometry x="470" y="-584" width="100" height="50" as="geometry" />
        </mxCell>
        <mxCell id="QMm4au8p8HmQlGDRWAsn-103" style="edgeStyle=orthogonalEdgeStyle;rounded=0;orthogonalLoop=1;jettySize=auto;html=1;endArrow=block;endFill=0;entryX=1;entryY=0.5;entryDx=0;entryDy=0;exitX=0;exitY=0.5;exitDx=0;exitDy=0;" edge="1" parent="1" source="QMm4au8p8HmQlGDRWAsn-104" target="QMm4au8p8HmQlGDRWAsn-105">
          <mxGeometry relative="1" as="geometry" />
        </mxCell>
        <mxCell id="QMm4au8p8HmQlGDRWAsn-106" style="edgeStyle=orthogonalEdgeStyle;rounded=0;orthogonalLoop=1;jettySize=auto;html=1;entryX=0;entryY=0.5;entryDx=0;entryDy=0;exitX=1;exitY=0.5;exitDx=0;exitDy=0;" edge="1" parent="1" source="QMm4au8p8HmQlGDRWAsn-104" target="QMm4au8p8HmQlGDRWAsn-87">
          <mxGeometry relative="1" as="geometry" />
        </mxCell>
        <mxCell id="QMm4au8p8HmQlGDRWAsn-107" style="edgeStyle=orthogonalEdgeStyle;rounded=0;orthogonalLoop=1;jettySize=auto;html=1;entryX=0;entryY=0.75;entryDx=0;entryDy=0;exitX=0.5;exitY=1;exitDx=0;exitDy=0;" edge="1" parent="1" source="QMm4au8p8HmQlGDRWAsn-104" target="QMm4au8p8HmQlGDRWAsn-80">
          <mxGeometry relative="1" as="geometry">
            <Array as="points">
              <mxPoint x="820" y="-498" />
              <mxPoint x="1460" y="-498" />
              <mxPoint x="1460" y="-547" />
            </Array>
          </mxGeometry>
        </mxCell>
        <mxCell id="QMm4au8p8HmQlGDRWAsn-104" value="JobApplication&lt;br&gt;Command&lt;br&gt;Handler" style="rounded=0;whiteSpace=wrap;html=1;strokeWidth=2;" vertex="1" parent="1">
          <mxGeometry x="770" y="-584" width="100" height="50" as="geometry" />
        </mxCell>
        <mxCell id="QMm4au8p8HmQlGDRWAsn-105" value="JobApplication&lt;br&gt;Command Port" style="rounded=0;whiteSpace=wrap;html=1;strokeWidth=2;fillColor=#dae8fc;strokeColor=#6c8ebf;" vertex="1" parent="1">
          <mxGeometry x="640" y="-584" width="100" height="50" as="geometry" />
        </mxCell>
        <mxCell id="QMm4au8p8HmQlGDRWAsn-108" value="JobApplication&lt;br&gt;Model" style="rounded=0;whiteSpace=wrap;html=1;strokeWidth=2;" vertex="1" parent="1">
          <mxGeometry x="1115" y="-807.5" width="100" height="50" as="geometry" />
        </mxCell>
        <mxCell id="QMm4au8p8HmQlGDRWAsn-109" value="JobApplication&lt;br&gt;Events" style="rounded=0;whiteSpace=wrap;html=1;strokeWidth=2;" vertex="1" parent="1">
          <mxGeometry x="1005" y="-807.5" width="100" height="50" as="geometry" />
        </mxCell>
        <mxCell id="QMm4au8p8HmQlGDRWAsn-113" style="edgeStyle=orthogonalEdgeStyle;rounded=0;orthogonalLoop=1;jettySize=auto;html=1;endArrow=block;endFill=0;entryX=1;entryY=0.5;entryDx=0;entryDy=0;exitX=0;exitY=0.5;exitDx=0;exitDy=0;" edge="1" parent="1" source="QMm4au8p8HmQlGDRWAsn-112" target="QMm4au8p8HmQlGDRWAsn-71">
          <mxGeometry relative="1" as="geometry">
            <Array as="points">
              <mxPoint x="790" y="765" />
              <mxPoint x="790" y="692" />
            </Array>
          </mxGeometry>
        </mxCell>
        <mxCell id="QMm4au8p8HmQlGDRWAsn-123" style="edgeStyle=orthogonalEdgeStyle;rounded=0;orthogonalLoop=1;jettySize=auto;html=1;entryX=0;entryY=0.5;entryDx=0;entryDy=0;" edge="1" parent="1" source="QMm4au8p8HmQlGDRWAsn-112" target="QMm4au8p8HmQlGDRWAsn-115">
          <mxGeometry relative="1" as="geometry">
            <Array as="points">
              <mxPoint x="1440" y="765" />
              <mxPoint x="1440" y="675" />
            </Array>
          </mxGeometry>
        </mxCell>
        <mxCell id="QMm4au8p8HmQlGDRWAsn-116" style="edgeStyle=orthogonalEdgeStyle;rounded=0;orthogonalLoop=1;jettySize=auto;html=1;endArrow=block;endFill=0;" edge="1" parent="1" source="QMm4au8p8HmQlGDRWAsn-118" target="QMm4au8p8HmQlGDRWAsn-114">
          <mxGeometry relative="1" as="geometry" />
        </mxCell>
        <mxCell id="QMm4au8p8HmQlGDRWAsn-117" style="edgeStyle=orthogonalEdgeStyle;rounded=0;orthogonalLoop=1;jettySize=auto;html=1;entryX=0;entryY=0.3;entryDx=0;entryDy=0;" edge="1" parent="1" source="QMm4au8p8HmQlGDRWAsn-118" target="QMm4au8p8HmQlGDRWAsn-168">
          <mxGeometry relative="1" as="geometry">
            <mxPoint x="2230" y="750" as="targetPoint" />
          </mxGeometry>
        </mxCell>
        <mxCell id="QMm4au8p8HmQlGDRWAsn-118" value="JobApplication&lt;br&gt;Query &lt;br&gt;Adapter" style="rounded=0;whiteSpace=wrap;html=1;strokeWidth=2;" vertex="1" parent="1">
          <mxGeometry x="1690" y="530" width="100" height="50" as="geometry" />
        </mxCell>
        <mxCell id="QMm4au8p8HmQlGDRWAsn-119" style="edgeStyle=orthogonalEdgeStyle;rounded=0;orthogonalLoop=1;jettySize=auto;html=1;endArrow=block;endFill=0;" edge="1" parent="1" source="QMm4au8p8HmQlGDRWAsn-121" target="QMm4au8p8HmQlGDRWAsn-115">
          <mxGeometry relative="1" as="geometry" />
        </mxCell>
        <mxCell id="QMm4au8p8HmQlGDRWAsn-171" style="edgeStyle=orthogonalEdgeStyle;rounded=0;orthogonalLoop=1;jettySize=auto;html=1;exitX=1;exitY=0.5;exitDx=0;exitDy=0;entryX=0;entryY=0.7;entryDx=0;entryDy=0;" edge="1" parent="1" source="QMm4au8p8HmQlGDRWAsn-121" target="QMm4au8p8HmQlGDRWAsn-168">
          <mxGeometry relative="1" as="geometry" />
        </mxCell>
        <mxCell id="QMm4au8p8HmQlGDRWAsn-121" value="JobApplication&lt;br&gt;Update View&lt;br&gt;Adapter" style="rounded=0;whiteSpace=wrap;html=1;strokeWidth=2;" vertex="1" parent="1">
          <mxGeometry x="1690" y="650" width="100" height="50" as="geometry" />
        </mxCell>
        <mxCell id="QMm4au8p8HmQlGDRWAsn-125" style="edgeStyle=orthogonalEdgeStyle;rounded=0;orthogonalLoop=1;jettySize=auto;html=1;endArrow=block;endFill=0;entryX=1;entryY=0.5;entryDx=0;entryDy=0;exitX=0;exitY=0.5;exitDx=0;exitDy=0;" edge="1" parent="1" source="QMm4au8p8HmQlGDRWAsn-124" target="QMm4au8p8HmQlGDRWAsn-66">
          <mxGeometry relative="1" as="geometry">
            <Array as="points">
              <mxPoint x="820" y="692" />
              <mxPoint x="820" y="555" />
            </Array>
          </mxGeometry>
        </mxCell>
        <mxCell id="QMm4au8p8HmQlGDRWAsn-126" style="edgeStyle=orthogonalEdgeStyle;rounded=0;orthogonalLoop=1;jettySize=auto;html=1;entryX=0;entryY=0.5;entryDx=0;entryDy=0;" edge="1" parent="1" source="QMm4au8p8HmQlGDRWAsn-124" target="QMm4au8p8HmQlGDRWAsn-114">
          <mxGeometry relative="1" as="geometry">
            <Array as="points">
              <mxPoint x="1400" y="692" />
              <mxPoint x="1400" y="555" />
            </Array>
          </mxGeometry>
        </mxCell>
        <mxCell id="QMm4au8p8HmQlGDRWAsn-187" style="edgeStyle=orthogonalEdgeStyle;rounded=0;orthogonalLoop=1;jettySize=auto;html=1;entryX=0;entryY=0.5;entryDx=0;entryDy=0;" edge="1" parent="1" target="QMm4au8p8HmQlGDRWAsn-102">
          <mxGeometry relative="1" as="geometry">
            <mxPoint x="14" y="-290" as="sourcePoint" />
            <Array as="points">
              <mxPoint x="14" y="-290" />
              <mxPoint x="14" y="-559" />
            </Array>
          </mxGeometry>
        </mxCell>
        <mxCell id="QMm4au8p8HmQlGDRWAsn-188" style="edgeStyle=orthogonalEdgeStyle;rounded=0;orthogonalLoop=1;jettySize=auto;html=1;entryX=0;entryY=0.5;entryDx=0;entryDy=0;" edge="1" parent="1" target="QMm4au8p8HmQlGDRWAsn-17">
          <mxGeometry relative="1" as="geometry">
            <mxPoint x="14" y="-290" as="sourcePoint" />
            <Array as="points">
              <mxPoint x="14" y="-1065" />
            </Array>
          </mxGeometry>
        </mxCell>
        <mxCell id="QMm4au8p8HmQlGDRWAsn-189" style="edgeStyle=orthogonalEdgeStyle;rounded=0;orthogonalLoop=1;jettySize=auto;html=1;entryX=0;entryY=0.5;entryDx=0;entryDy=0;" edge="1" parent="1" target="QMm4au8p8HmQlGDRWAsn-48">
          <mxGeometry relative="1" as="geometry">
            <mxPoint x="14" y="-172" as="sourcePoint" />
            <Array as="points">
              <mxPoint x="14" y="85" />
            </Array>
          </mxGeometry>
        </mxCell>
        <mxCell id="QMm4au8p8HmQlGDRWAsn-190" style="edgeStyle=orthogonalEdgeStyle;rounded=0;orthogonalLoop=1;jettySize=auto;html=1;entryX=0;entryY=0.5;entryDx=0;entryDy=0;" edge="1" parent="1" target="QMm4au8p8HmQlGDRWAsn-70">
          <mxGeometry relative="1" as="geometry">
            <mxPoint x="15" y="-172" as="sourcePoint" />
            <Array as="points">
              <mxPoint x="15" y="-169" />
              <mxPoint x="15" y="555" />
            </Array>
          </mxGeometry>
        </mxCell>
        <mxCell id="QMm4au8p8HmQlGDRWAsn-128" value="User /&lt;br&gt;Frontend" style="shape=umlActor;verticalLabelPosition=bottom;verticalAlign=top;html=1;" vertex="1" parent="1">
          <mxGeometry y="-280" width="30" height="60" as="geometry" />
        </mxCell>
        <mxCell id="QMm4au8p8HmQlGDRWAsn-137" style="edgeStyle=orthogonalEdgeStyle;rounded=0;orthogonalLoop=1;jettySize=auto;html=1;entryX=0;entryY=0.5;entryDx=0;entryDy=0;exitX=1.006;exitY=0.74;exitDx=0;exitDy=0;exitPerimeter=0;" edge="1" parent="1" source="QMm4au8p8HmQlGDRWAsn-136" target="QMm4au8p8HmQlGDRWAsn-37">
          <mxGeometry relative="1" as="geometry">
            <Array as="points">
              <mxPoint x="390" y="-766" />
              <mxPoint x="390" y="-735" />
            </Array>
          </mxGeometry>
        </mxCell>
        <mxCell id="QMm4au8p8HmQlGDRWAsn-138" style="edgeStyle=orthogonalEdgeStyle;rounded=0;orthogonalLoop=1;jettySize=auto;html=1;entryX=0;entryY=0.5;entryDx=0;entryDy=0;exitX=1.006;exitY=0.294;exitDx=0;exitDy=0;exitPerimeter=0;" edge="1" parent="1" source="QMm4au8p8HmQlGDRWAsn-136" target="QMm4au8p8HmQlGDRWAsn-36">
          <mxGeometry relative="1" as="geometry">
            <Array as="points">
              <mxPoint x="390" y="-797" />
              <mxPoint x="390" y="-827" />
            </Array>
          </mxGeometry>
        </mxCell>
        <mxCell id="QMm4au8p8HmQlGDRWAsn-136" value="User Serivce" style="shape=umlFrame;whiteSpace=wrap;html=1;pointerEvents=0;width=140;height=55;fillColor=#e1d5e7;strokeColor=#9673a6;fontSize=20;" vertex="1" parent="1">
          <mxGeometry x="100" y="-817.5" width="170" height="70" as="geometry" />
        </mxCell>
        <mxCell id="QMm4au8p8HmQlGDRWAsn-141" value="User&lt;br&gt;Model" style="rounded=0;whiteSpace=wrap;html=1;strokeWidth=2;" vertex="1" parent="1">
          <mxGeometry x="1115" y="-722.5" width="100" height="50" as="geometry" />
        </mxCell>
        <mxCell id="QMm4au8p8HmQlGDRWAsn-142" value="Company&lt;br&gt;Model" style="rounded=0;whiteSpace=wrap;html=1;strokeWidth=2;" vertex="1" parent="1">
          <mxGeometry x="1005" y="-722.5" width="100" height="50" as="geometry" />
        </mxCell>
        <mxCell id="QMm4au8p8HmQlGDRWAsn-144" style="edgeStyle=orthogonalEdgeStyle;rounded=0;orthogonalLoop=1;jettySize=auto;html=1;entryX=1;entryY=0.5;entryDx=0;entryDy=0;endArrow=block;endFill=0;" edge="1" parent="1" source="QMm4au8p8HmQlGDRWAsn-143" target="QMm4au8p8HmQlGDRWAsn-40">
          <mxGeometry relative="1" as="geometry" />
        </mxCell>
        <mxCell id="QMm4au8p8HmQlGDRWAsn-145" style="edgeStyle=orthogonalEdgeStyle;rounded=0;orthogonalLoop=1;jettySize=auto;html=1;entryX=0;entryY=0.25;entryDx=0;entryDy=0;exitX=0.75;exitY=1;exitDx=0;exitDy=0;" edge="1" parent="1" source="QMm4au8p8HmQlGDRWAsn-143" target="QMm4au8p8HmQlGDRWAsn-80">
          <mxGeometry relative="1" as="geometry">
            <mxPoint x="1660" y="-730" as="targetPoint" />
            <Array as="points">
              <mxPoint x="925" y="-620" />
              <mxPoint x="1460" y="-620" />
              <mxPoint x="1460" y="-571" />
            </Array>
          </mxGeometry>
        </mxCell>
        <mxCell id="QMm4au8p8HmQlGDRWAsn-146" style="edgeStyle=orthogonalEdgeStyle;rounded=0;orthogonalLoop=1;jettySize=auto;html=1;entryX=0.25;entryY=0;entryDx=0;entryDy=0;exitX=0.5;exitY=1;exitDx=0;exitDy=0;dashed=1;fillColor=#dae8fc;strokeColor=#000000;" edge="1" parent="1" source="QMm4au8p8HmQlGDRWAsn-143" target="QMm4au8p8HmQlGDRWAsn-66">
          <mxGeometry relative="1" as="geometry">
            <mxPoint x="850" y="-695" as="sourcePoint" />
            <Array as="points">
              <mxPoint x="890" y="-250" />
              <mxPoint x="660" y="-250" />
              <mxPoint x="660" y="40" />
              <mxPoint x="590" y="40" />
              <mxPoint x="590" y="510" />
              <mxPoint x="645" y="510" />
            </Array>
          </mxGeometry>
        </mxCell>
        <mxCell id="QMm4au8p8HmQlGDRWAsn-148" style="edgeStyle=orthogonalEdgeStyle;rounded=0;orthogonalLoop=1;jettySize=auto;html=1;entryX=1;entryY=0.5;entryDx=0;entryDy=0;endArrow=block;endFill=0;exitX=0.25;exitY=1;exitDx=0;exitDy=0;" edge="1" parent="1" source="QMm4au8p8HmQlGDRWAsn-147" target="QMm4au8p8HmQlGDRWAsn-76">
          <mxGeometry relative="1" as="geometry">
            <Array as="points">
              <mxPoint x="1155" y="-427" />
            </Array>
          </mxGeometry>
        </mxCell>
        <mxCell id="QMm4au8p8HmQlGDRWAsn-149" style="edgeStyle=orthogonalEdgeStyle;rounded=0;orthogonalLoop=1;jettySize=auto;html=1;exitX=0.75;exitY=1;exitDx=0;exitDy=0;entryX=0.25;entryY=0;entryDx=0;entryDy=0;dashed=1;fillColor=#dae8fc;strokeColor=#000000;" edge="1" parent="1" source="QMm4au8p8HmQlGDRWAsn-147" target="QMm4au8p8HmQlGDRWAsn-66">
          <mxGeometry relative="1" as="geometry">
            <mxPoint x="500" y="710" as="targetPoint" />
            <Array as="points">
              <mxPoint x="1205" y="-250" />
              <mxPoint x="660" y="-250" />
              <mxPoint x="660" y="40" />
              <mxPoint x="590" y="40" />
              <mxPoint x="590" y="510" />
              <mxPoint x="645" y="510" />
            </Array>
          </mxGeometry>
        </mxCell>
        <mxCell id="QMm4au8p8HmQlGDRWAsn-147" value="JobApplication&lt;br&gt;Cross Aggregate&lt;br&gt;Event Handler" style="rounded=0;whiteSpace=wrap;html=1;strokeWidth=2;" vertex="1" parent="1">
          <mxGeometry x="1130" y="-584" width="100" height="50" as="geometry" />
        </mxCell>
        <mxCell id="QMm4au8p8HmQlGDRWAsn-152" style="edgeStyle=orthogonalEdgeStyle;rounded=0;orthogonalLoop=1;jettySize=auto;html=1;endArrow=block;endFill=0;entryX=1;entryY=0.5;entryDx=0;entryDy=0;exitX=0;exitY=0.5;exitDx=0;exitDy=0;" edge="1" parent="1" source="QMm4au8p8HmQlGDRWAsn-151" target="QMm4au8p8HmQlGDRWAsn-11">
          <mxGeometry relative="1" as="geometry">
            <Array as="points">
              <mxPoint x="790" y="45" />
              <mxPoint x="790" y="85" />
            </Array>
          </mxGeometry>
        </mxCell>
        <mxCell id="QMm4au8p8HmQlGDRWAsn-54" value="JobOffer&lt;br&gt;Query &lt;br&gt;Port" style="rounded=0;whiteSpace=wrap;html=1;strokeWidth=2;fillColor=#dae8fc;strokeColor=#6c8ebf;" vertex="1" parent="1">
          <mxGeometry x="1470" y="80" width="100" height="50" as="geometry" />
        </mxCell>
        <mxCell id="QMm4au8p8HmQlGDRWAsn-55" value="JobOffer&lt;br&gt;Update View&lt;br&gt;Port" style="rounded=0;whiteSpace=wrap;html=1;strokeWidth=2;fillColor=#dae8fc;strokeColor=#6c8ebf;" vertex="1" parent="1">
          <mxGeometry x="1500" y="170" width="100" height="50" as="geometry" />
        </mxCell>
        <mxCell id="QMm4au8p8HmQlGDRWAsn-114" value="JobApplication&lt;br&gt;Query &lt;br&gt;Port" style="rounded=0;whiteSpace=wrap;html=1;strokeWidth=2;fillColor=#dae8fc;strokeColor=#6c8ebf;" vertex="1" parent="1">
          <mxGeometry x="1510" y="530" width="100" height="50" as="geometry" />
        </mxCell>
        <mxCell id="QMm4au8p8HmQlGDRWAsn-115" value="JobApplication&lt;br&gt;Update View&lt;br&gt;Port" style="rounded=0;whiteSpace=wrap;html=1;strokeWidth=2;fillColor=#dae8fc;strokeColor=#6c8ebf;" vertex="1" parent="1">
          <mxGeometry x="1480" y="650" width="100" height="50" as="geometry" />
        </mxCell>
        <mxCell id="QMm4au8p8HmQlGDRWAsn-66" value="JobApplication&lt;br&gt;Query &lt;br&gt;Service Port" style="rounded=0;whiteSpace=wrap;html=1;strokeWidth=2;fillColor=#dae8fc;strokeColor=#6c8ebf;" vertex="1" parent="1">
          <mxGeometry x="620" y="530" width="100" height="50" as="geometry" />
        </mxCell>
        <mxCell id="QMm4au8p8HmQlGDRWAsn-71" value="JobApplication&lt;br&gt;Update View&lt;br&gt;Service Port" style="rounded=0;whiteSpace=wrap;html=1;strokeWidth=2;fillColor=#dae8fc;strokeColor=#6c8ebf;" vertex="1" parent="1">
          <mxGeometry x="650" y="667" width="100" height="50" as="geometry" />
        </mxCell>
        <mxCell id="QMm4au8p8HmQlGDRWAsn-112" value="JobApplication&lt;br&gt;Update View&lt;br&gt;Service" style="rounded=0;whiteSpace=wrap;html=1;strokeWidth=2;" vertex="1" parent="1">
          <mxGeometry x="1060" y="740" width="100" height="50" as="geometry" />
        </mxCell>
        <mxCell id="QMm4au8p8HmQlGDRWAsn-124" value="JobApplication&lt;br style=&quot;border-color: var(--border-color);&quot;&gt;Query&lt;br style=&quot;border-color: var(--border-color);&quot;&gt;Service" style="rounded=0;whiteSpace=wrap;html=1;strokeWidth=2;" vertex="1" parent="1">
          <mxGeometry x="1060" y="667" width="100" height="50" as="geometry" />
        </mxCell>
        <mxCell id="QMm4au8p8HmQlGDRWAsn-11" value="JobOffer&lt;br&gt;Query &lt;br&gt;Service Port" style="rounded=0;whiteSpace=wrap;html=1;strokeWidth=2;fillColor=#dae8fc;strokeColor=#6c8ebf;" vertex="1" parent="1">
          <mxGeometry x="640" y="60" width="100" height="50" as="geometry" />
        </mxCell>
        <mxCell id="QMm4au8p8HmQlGDRWAsn-50" value="JobOffer&lt;br&gt;Update View&lt;br&gt;Service Port" style="rounded=0;whiteSpace=wrap;html=1;strokeWidth=2;fillColor=#dae8fc;strokeColor=#6c8ebf;" vertex="1" parent="1">
          <mxGeometry x="620" y="180" width="100" height="50" as="geometry" />
        </mxCell>
        <mxCell id="QMm4au8p8HmQlGDRWAsn-175" style="edgeStyle=orthogonalEdgeStyle;rounded=0;orthogonalLoop=1;jettySize=auto;html=1;exitX=1;exitY=0.25;exitDx=0;exitDy=0;entryX=0;entryY=0.75;entryDx=0;entryDy=0;" edge="1" parent="1" source="QMm4au8p8HmQlGDRWAsn-52" target="QMm4au8p8HmQlGDRWAsn-54">
          <mxGeometry relative="1" as="geometry">
            <Array as="points">
              <mxPoint x="1410" y="103" />
              <mxPoint x="1410" y="117" />
            </Array>
          </mxGeometry>
        </mxCell>
        <mxCell id="QMm4au8p8HmQlGDRWAsn-176" style="edgeStyle=orthogonalEdgeStyle;rounded=0;orthogonalLoop=1;jettySize=auto;html=1;exitX=1;exitY=0.75;exitDx=0;exitDy=0;entryX=0;entryY=0.5;entryDx=0;entryDy=0;" edge="1" parent="1" source="QMm4au8p8HmQlGDRWAsn-52" target="QMm4au8p8HmQlGDRWAsn-55">
          <mxGeometry relative="1" as="geometry">
            <Array as="points">
              <mxPoint x="1380" y="127" />
              <mxPoint x="1380" y="195" />
            </Array>
          </mxGeometry>
        </mxCell>
        <mxCell id="QMm4au8p8HmQlGDRWAsn-52" value="JobOffer&lt;br&gt;Update View&lt;br&gt;Service" style="rounded=0;whiteSpace=wrap;html=1;strokeWidth=2;" vertex="1" parent="1">
          <mxGeometry x="1055" y="90" width="100" height="50" as="geometry" />
        </mxCell>
        <mxCell id="QMm4au8p8HmQlGDRWAsn-174" style="edgeStyle=orthogonalEdgeStyle;rounded=0;orthogonalLoop=1;jettySize=auto;html=1;entryX=0;entryY=0.25;entryDx=0;entryDy=0;exitX=1;exitY=0.5;exitDx=0;exitDy=0;" edge="1" parent="1" source="QMm4au8p8HmQlGDRWAsn-151" target="QMm4au8p8HmQlGDRWAsn-54">
          <mxGeometry relative="1" as="geometry">
            <Array as="points">
              <mxPoint x="1440" y="45" />
              <mxPoint x="1440" y="93" />
              <mxPoint x="1470" y="93" />
            </Array>
          </mxGeometry>
        </mxCell>
        <mxCell id="QMm4au8p8HmQlGDRWAsn-151" value="JobOffer&lt;br&gt;Query &lt;br&gt;Service" style="rounded=0;whiteSpace=wrap;html=1;strokeWidth=2;" vertex="1" parent="1">
          <mxGeometry x="1055" y="20" width="100" height="50" as="geometry" />
        </mxCell>
        <mxCell id="QMm4au8p8HmQlGDRWAsn-167" value="JobOffer&lt;br&gt;MongoDB" style="shape=datastore;whiteSpace=wrap;html=1;fontSize=20;fontStyle=0;fillColor=#e1d5e7;strokeColor=#9673a6;" vertex="1" parent="1">
          <mxGeometry x="1997.5" y="100" width="160" height="100" as="geometry" />
        </mxCell>
        <mxCell id="QMm4au8p8HmQlGDRWAsn-168" value="JobApplication&lt;br&gt;MongoDB" style="shape=datastore;whiteSpace=wrap;html=1;fontSize=20;fontStyle=0;fillColor=#e1d5e7;strokeColor=#9673a6;" vertex="1" parent="1">
          <mxGeometry x="2000" y="557" width="155" height="110" as="geometry" />
        </mxCell>
        <mxCell id="QMm4au8p8HmQlGDRWAsn-45" style="edgeStyle=orthogonalEdgeStyle;rounded=0;orthogonalLoop=1;jettySize=auto;html=1;entryX=0.5;entryY=0;entryDx=0;entryDy=0;dashed=1;jumpStyle=arc;exitX=0.5;exitY=1;exitDx=0;exitDy=0;" edge="1" parent="1" source="QMm4au8p8HmQlGDRWAsn-43" target="QMm4au8p8HmQlGDRWAsn-11">
          <mxGeometry relative="1" as="geometry">
            <mxPoint x="650" y="-1180" as="sourcePoint" />
            <mxPoint x="360" y="130" as="targetPoint" />
            <Array as="points">
              <mxPoint x="880" y="-210" />
              <mxPoint x="690" y="-210" />
            </Array>
          </mxGeometry>
        </mxCell>
        <mxCell id="QMm4au8p8HmQlGDRWAsn-100" style="edgeStyle=orthogonalEdgeStyle;rounded=0;orthogonalLoop=1;jettySize=auto;html=1;entryX=0.5;entryY=0;entryDx=0;entryDy=0;exitX=0.25;exitY=1;exitDx=0;exitDy=0;dashed=1;jumpStyle=arc;" edge="1" parent="1" source="QMm4au8p8HmQlGDRWAsn-87" target="QMm4au8p8HmQlGDRWAsn-11">
          <mxGeometry relative="1" as="geometry">
            <Array as="points">
              <mxPoint x="955" y="-210" />
              <mxPoint x="690" y="-210" />
            </Array>
          </mxGeometry>
        </mxCell>
        <mxCell id="QMm4au8p8HmQlGDRWAsn-143" value="JobApplication&lt;br&gt;External Event&lt;br&gt;Handler" style="rounded=0;whiteSpace=wrap;html=1;strokeWidth=2;" vertex="1" parent="1">
          <mxGeometry x="840" y="-720" width="100" height="50" as="geometry" />
        </mxCell>
        <mxCell id="QMm4au8p8HmQlGDRWAsn-51" style="edgeStyle=orthogonalEdgeStyle;rounded=0;orthogonalLoop=1;jettySize=auto;html=1;entryX=0;entryY=0.5;entryDx=0;entryDy=0;jumpStyle=arc;" edge="1" parent="1" source="QMm4au8p8HmQlGDRWAsn-47" target="QMm4au8p8HmQlGDRWAsn-50">
          <mxGeometry relative="1" as="geometry" />
        </mxCell>
        <mxCell id="QMm4au8p8HmQlGDRWAsn-49" style="edgeStyle=orthogonalEdgeStyle;rounded=0;orthogonalLoop=1;jettySize=auto;html=1;entryX=0;entryY=0.5;entryDx=0;entryDy=0;jumpStyle=arc;" edge="1" parent="1" source="QMm4au8p8HmQlGDRWAsn-48" target="QMm4au8p8HmQlGDRWAsn-11">
          <mxGeometry relative="1" as="geometry">
            <mxPoint x="290" y="39.999999999999545" as="targetPoint" />
          </mxGeometry>
        </mxCell>
        <mxCell id="QMm4au8p8HmQlGDRWAsn-99" style="edgeStyle=orthogonalEdgeStyle;rounded=0;orthogonalLoop=1;jettySize=auto;html=1;entryX=0;entryY=0.5;entryDx=0;entryDy=0;exitX=0.5;exitY=0;exitDx=0;exitDy=0;jumpStyle=arc;" edge="1" parent="1" source="QMm4au8p8HmQlGDRWAsn-87" target="QMm4au8p8HmQlGDRWAsn-90">
          <mxGeometry relative="1" as="geometry">
            <Array as="points">
              <mxPoint x="980" y="-600" />
              <mxPoint x="1350" y="-600" />
              <mxPoint x="1350" y="-735" />
            </Array>
          </mxGeometry>
        </mxCell>
        <mxCell id="QMm4au8p8HmQlGDRWAsn-98" style="edgeStyle=orthogonalEdgeStyle;rounded=0;orthogonalLoop=1;jettySize=auto;html=1;entryX=0;entryY=0.75;entryDx=0;entryDy=0;exitX=0.5;exitY=0;exitDx=0;exitDy=0;jumpStyle=arc;" edge="1" parent="1" source="QMm4au8p8HmQlGDRWAsn-87" target="QMm4au8p8HmQlGDRWAsn-89">
          <mxGeometry relative="1" as="geometry">
            <Array as="points">
              <mxPoint x="980" y="-600" />
              <mxPoint x="1350" y="-600" />
              <mxPoint x="1350" y="-863" />
            </Array>
          </mxGeometry>
        </mxCell>
        <mxCell id="QMm4au8p8HmQlGDRWAsn-179" value="Domain Model" style="text;html=1;strokeColor=none;fillColor=none;align=center;verticalAlign=middle;whiteSpace=wrap;rounded=0;fontColor=#FFFFFF;fontSize=23;" vertex="1" parent="1">
          <mxGeometry x="1026.25" y="-950" width="167.5" height="50" as="geometry" />
        </mxCell>
        <mxCell id="QMm4au8p8HmQlGDRWAsn-180" value="Domain" style="text;html=1;strokeColor=none;fillColor=none;align=center;verticalAlign=middle;whiteSpace=wrap;rounded=0;fontColor=#000000;fontSize=23;" vertex="1" parent="1">
          <mxGeometry x="1031.25" y="-1010" width="157.5" height="30" as="geometry" />
        </mxCell>
        <mxCell id="QMm4au8p8HmQlGDRWAsn-181" value="Application" style="text;html=1;strokeColor=none;fillColor=none;align=center;verticalAlign=middle;whiteSpace=wrap;rounded=0;fontColor=#000000;fontSize=23;" vertex="1" parent="1">
          <mxGeometry x="1026.25" y="-1210" width="157.5" height="30" as="geometry" />
        </mxCell>
        <mxCell id="QMm4au8p8HmQlGDRWAsn-182" value="Primary&lt;br&gt;Adapter" style="text;html=1;strokeColor=none;fillColor=none;align=center;verticalAlign=middle;whiteSpace=wrap;rounded=0;fontColor=#000000;fontSize=23;" vertex="1" parent="1">
          <mxGeometry x="512.5" y="-1235" width="157.5" height="80" as="geometry" />
        </mxCell>
        <mxCell id="QMm4au8p8HmQlGDRWAsn-183" value="Secondary&lt;br&gt;Adapter" style="text;html=1;strokeColor=none;fillColor=none;align=center;verticalAlign=middle;whiteSpace=wrap;rounded=0;fontColor=#000000;fontSize=23;" vertex="1" parent="1">
          <mxGeometry x="1600" y="-1235" width="157.5" height="80" as="geometry" />
        </mxCell>
        <mxCell id="QMm4au8p8HmQlGDRWAsn-197" value="Primary&lt;br&gt;Adapter" style="text;html=1;strokeColor=none;fillColor=none;align=center;verticalAlign=middle;whiteSpace=wrap;rounded=0;fontColor=#000000;fontSize=23;" vertex="1" parent="1">
          <mxGeometry x="500" y="-90" width="157.5" height="80" as="geometry" />
        </mxCell>
        <mxCell id="QMm4au8p8HmQlGDRWAsn-198" value="Secondary&lt;br&gt;Adapter" style="text;html=1;strokeColor=none;fillColor=none;align=center;verticalAlign=middle;whiteSpace=wrap;rounded=0;fontColor=#000000;fontSize=23;" vertex="1" parent="1">
          <mxGeometry x="1590" y="-90" width="157.5" height="80" as="geometry" />
        </mxCell>
        <mxCell id="QMm4au8p8HmQlGDRWAsn-199" value="" style="endArrow=none;html=1;rounded=0;entryX=0.5;entryY=1;entryDx=0;entryDy=0;exitX=0.5;exitY=1;exitDx=0;exitDy=0;" edge="1" parent="1" source="QMm4au8p8HmQlGDRWAsn-196" target="QMm4au8p8HmQlGDRWAsn-166">
          <mxGeometry width="50" height="50" relative="1" as="geometry">
            <mxPoint x="1040" y="980" as="sourcePoint" />
            <mxPoint x="1090" y="930" as="targetPoint" />
          </mxGeometry>
        </mxCell>
        <mxCell id="QMm4au8p8HmQlGDRWAsn-200" value="" style="endArrow=none;html=1;rounded=0;entryX=0.5;entryY=0;entryDx=0;entryDy=0;exitX=0.5;exitY=0;exitDx=0;exitDy=0;" edge="1" parent="1" source="QMm4au8p8HmQlGDRWAsn-166" target="QMm4au8p8HmQlGDRWAsn-196">
          <mxGeometry width="50" height="50" relative="1" as="geometry">
            <mxPoint x="1130" y="-100" as="sourcePoint" />
            <mxPoint x="1180" y="-150" as="targetPoint" />
          </mxGeometry>
        </mxCell>
        <mxCell id="QMm4au8p8HmQlGDRWAsn-201" value="" style="endArrow=none;html=1;rounded=0;exitX=0.5;exitY=1;exitDx=0;exitDy=0;entryX=0.5;entryY=1;entryDx=0;entryDy=0;" edge="1" parent="1" source="QMm4au8p8HmQlGDRWAsn-194" target="QMm4au8p8HmQlGDRWAsn-14">
          <mxGeometry width="50" height="50" relative="1" as="geometry">
            <mxPoint x="1150" y="-200" as="sourcePoint" />
            <mxPoint x="1200" y="-250" as="targetPoint" />
          </mxGeometry>
        </mxCell>
        <mxCell id="QMm4au8p8HmQlGDRWAsn-204" value="Application" style="text;html=1;strokeColor=none;fillColor=none;align=center;verticalAlign=middle;whiteSpace=wrap;rounded=0;fontColor=#000000;fontSize=23;" vertex="1" parent="1">
          <mxGeometry x="1026.25" y="-40" width="157.5" height="30" as="geometry" />
        </mxCell>
        <mxCell id="QMm4au8p8HmQlGDRWAsn-205" value="" style="endArrow=none;html=1;rounded=0;exitX=0.5;exitY=0;exitDx=0;exitDy=0;entryX=0.5;entryY=0;entryDx=0;entryDy=0;" edge="1" parent="1" source="QMm4au8p8HmQlGDRWAsn-14" target="QMm4au8p8HmQlGDRWAsn-194">
          <mxGeometry width="50" height="50" relative="1" as="geometry">
            <mxPoint x="1100" y="-1440" as="sourcePoint" />
            <mxPoint x="1150" y="-1490" as="targetPoint" />
          </mxGeometry>
        </mxCell>
      </root>
    </mxGraphModel>
  </diagram>
</mxfile>
